<svg width="17" height="16" viewBox="0 0 17 16" fill="none" xmlns="http://www.w3.org/2000/svg">
<circle cx="8.5" cy="8" r="8" fill="#09C7A6"/>
<path d="M6.03339 12.528C6.03339 12.42 6.02139 12.372 5.97339 12.372L5.69739 12.504C5.69739 12.444 5.66139 12.408 5.60139 12.384L5.50539 12.372C5.42139 12.372 5.38539 12.384 5.26539 12.456C5.22939 12.384 5.18139 12.3 5.14539 12.228C4.83339 11.628 4.50939 10.728 4.36539 10.332C4.29339 10.128 4.22139 9.708 4.13739 9.072C4.23339 9.132 4.30539 9.156 4.34139 9.156C4.38939 9.156 4.44939 9.072 4.49739 8.904C4.52139 8.94 4.56939 8.952 4.62939 8.952C4.66539 8.952 4.71339 8.94 4.73739 8.904L4.92939 8.616L5.14539 8.688H5.15739C5.18139 8.688 5.21739 8.652 5.27739 8.616C5.33739 8.58 5.38539 8.556 5.42139 8.556L5.45739 8.568C5.64939 8.664 5.78139 8.832 5.84139 9.096C5.98539 9.708 6.11739 10.008 6.27339 10.008C6.40539 10.008 6.58539 9.852 6.77739 9.552C6.96939 9.252 7.16139 8.844 7.37739 8.352C7.38939 8.448 7.40139 8.496 7.42539 8.496C7.49739 8.496 7.67739 8.076 8.12139 7.368C8.78139 6.3 10.4134 4.248 10.8334 3.96C11.1454 3.744 11.3854 3.54 11.5534 3.36C11.5294 3.48 11.5054 3.564 11.5054 3.6C11.5054 3.636 11.5294 3.648 11.5534 3.648L11.8894 3.48V3.528C11.8894 3.588 11.9014 3.624 11.9374 3.624C11.9854 3.624 12.1774 3.432 12.2014 3.36L12.1774 3.528L12.5854 3.288L12.4894 3.504C12.6094 3.42 12.7054 3.372 12.7654 3.372C12.8254 3.372 12.8614 3.468 12.8614 3.528C12.8614 3.624 12.7774 3.756 12.6454 3.924C12.5014 4.116 12.1414 4.488 11.0614 5.724C10.5934 6.252 8.51739 9.072 8.12139 9.744L7.37739 11.004C7.05339 11.544 6.84939 11.892 6.74139 12.024C6.63339 12.156 6.50139 12.288 6.34539 12.408L6.23739 12.348L6.14139 12.408L6.03339 12.528Z" fill="white"/>
</svg>
