<svg width="45" height="45" viewBox="0 0 45 45" fill="none" xmlns="http://www.w3.org/2000/svg">
    <circle cx="22.5" cy="22.5" r="22.5" fill="white" fill-opacity="0.2"/>
    <path d="M33.6397 11.25H10.4949C10.0066 11.25 9.53834 11.4355 9.19307 11.7658C8.84781 12.096 8.65384 12.5439 8.65384 13.011V31.1237C8.65384 31.5907 8.84781 32.0386 9.19307 32.3688C9.53834 32.6991 10.0066 32.8846 10.4949 32.8846H33.6397C34.128 32.8846 34.5963 32.6991 34.9415 32.3688C35.2868 32.0386 35.4808 31.5907 35.4808 31.1237V13.011C35.4808 12.5439 35.2868 12.096 34.9415 11.7658C34.5963 11.4355 34.128 11.25 33.6397 11.25ZM10.4949 12.7594H33.6397C33.7095 12.7594 33.7764 12.7859 33.8257 12.8331C33.875 12.8803 33.9027 12.9442 33.9027 13.011V27.2873L29.6814 23.2497C29.3345 22.9224 28.8668 22.739 28.3795 22.739C27.8923 22.739 27.4246 22.9224 27.0776 23.2497L24.3555 25.8534C24.3321 25.8778 24.3036 25.8972 24.2719 25.9106C24.2402 25.9239 24.206 25.9308 24.1714 25.9308C24.1368 25.9308 24.1025 25.9239 24.0708 25.9106C24.0391 25.8972 24.0107 25.8778 23.9873 25.8534L18.109 20.2309C17.7621 19.9036 17.2944 19.7202 16.8071 19.7202C16.3199 19.7202 15.8522 19.9036 15.5052 20.2309L10.2319 25.2748V13.011C10.2319 12.9442 10.2596 12.8803 10.3089 12.8331C10.3583 12.7859 10.4251 12.7594 10.4949 12.7594ZM33.6397 31.3752H10.4949C10.4251 31.3752 10.3583 31.3487 10.3089 31.3015C10.2596 31.2544 10.2319 31.1904 10.2319 31.1237V27.4131L16.623 21.3C16.6464 21.2756 16.6749 21.2562 16.7066 21.2428C16.7383 21.2295 16.7725 21.2226 16.8071 21.2226C16.8417 21.2226 16.876 21.2295 16.9077 21.2428C16.9394 21.2562 16.9678 21.2756 16.9912 21.3L22.8695 26.9225C23.2164 27.2498 23.6841 27.4332 24.1714 27.4332C24.6586 27.4332 25.1263 27.2498 25.4733 26.9225L28.1954 24.3188C28.2188 24.2944 28.2473 24.2749 28.279 24.2616C28.3107 24.2483 28.3449 24.2414 28.3795 24.2414C28.4141 24.2414 28.4484 24.2483 28.4801 24.2616C28.5118 24.2749 28.5402 24.2944 28.5636 24.3188L33.9027 29.4256V31.1237C33.9027 31.1904 33.875 31.2544 33.8257 31.3015C33.7764 31.3487 33.7095 31.3752 33.6397 31.3752ZM24.8157 19.4385C24.6933 19.3213 24.5965 19.182 24.531 19.0287C24.4655 18.8753 24.4327 18.711 24.4344 18.5454C24.4344 18.2118 24.5729 17.8919 24.8195 17.656C25.0662 17.4201 25.4007 17.2876 25.7494 17.2876C26.0982 17.2876 26.4327 17.4201 26.6793 17.656C26.9259 17.8919 27.0645 18.2118 27.0645 18.5454C27.0645 18.879 26.9259 19.1989 26.6793 19.4348C26.4327 19.6707 26.0982 19.8032 25.7494 19.8032C25.5763 19.8049 25.4045 19.7735 25.2442 19.7108C25.0838 19.6482 24.9382 19.5556 24.8157 19.4385Z" fill="white"/>
</svg>
