<svg width="48" height="48" viewBox="0 0 48 48" fill="none" xmlns="http://www.w3.org/2000/svg">
    <mask id="mask0_6587_10623" style="mask-type:luminance" maskUnits="userSpaceOnUse" x="6" y="2" width="36" height="44">
    <path d="M38 4H10C9.46957 4 8.96086 4.21071 8.58579 4.58579C8.21071 4.96086 8 5.46957 8 6V42C8 42.5304 8.21071 43.0391 8.58579 43.4142C8.96086 43.7893 9.46957 44 10 44H38C38.5304 44 39.0391 43.7893 39.4142 43.4142C39.7893 43.0391 40 42.5304 40 42V6C40 5.46957 39.7893 4.96086 39.4142 4.58579C39.0391 4.21071 38.5304 4 38 4Z" fill="white" stroke="white" stroke-width="4" stroke-linecap="round" stroke-linejoin="round"/>
    <path d="M28 16.0001C28 17.3801 27.44 18.6301 26.535 19.5351C25.7169 20.3529 24.6405 20.8618 23.4893 20.975C22.3381 21.0882 21.1832 20.7988 20.2215 20.1559C19.2597 19.5131 18.5507 18.5567 18.215 17.4496C17.8794 16.3426 17.9381 15.1534 18.381 14.0848C18.8238 13.0161 19.6236 12.1341 20.6439 11.589C21.6642 11.0439 22.8419 10.8694 23.9764 11.0953C25.1109 11.3212 26.132 11.9335 26.8657 12.8279C27.5994 13.7222 28.0002 14.8433 28 16.0001Z" fill="white"/>
    <path d="M30 22.9999L26.535 19.5349M26.535 19.5349C27.0089 19.0728 27.3864 18.5211 27.6454 17.912C27.9045 17.3029 28.0401 16.6483 28.0442 15.9864C28.0484 15.3245 27.921 14.6683 27.6696 14.056C27.4182 13.4436 27.0477 12.8873 26.5796 12.4193C26.1115 11.9513 25.5551 11.5808 24.9427 11.3295C24.3304 11.0782 23.6742 10.9509 23.0123 10.9552C22.3503 10.9594 21.6958 11.0951 21.0867 11.3542C20.4776 11.6134 19.9261 11.9909 19.464 12.4649C18.5332 13.4041 18.0124 14.6738 18.0155 15.9961C18.0186 17.3183 18.5453 18.5856 19.4804 19.5204C20.4156 20.4553 21.6829 20.9817 23.0052 20.9844C24.3275 20.9871 25.596 20.4659 26.535 19.5349ZM17 29.9999H31M17 35.9999H24" stroke="black" stroke-width="4" stroke-linecap="round" stroke-linejoin="round"/>
    </mask>
    <g mask="url(#mask0_6587_10623)">
    <path d="M0 0H48V48H0V0Z" fill="white"/>
    </g>
</svg>
